<svg version="1.0" preserveAspectRatio="xMidYMid meet" height="120" viewBox="0 0 90 89.999999" zoomAndPan="magnify" width="120" xmlns:xlink="http://www.w3.org/1999/xlink" xmlns="http://www.w3.org/2000/svg"><defs><clipPath id="8ab8450f84"><path clip-rule="nonzero" d="M 47.363281 3.207031 L 47.722656 3.207031 L 47.722656 3.460938 L 47.363281 3.460938 Z M 47.363281 3.207031"></path></clipPath><clipPath id="d93890bbe6"><path clip-rule="nonzero" d="M 47.699219 3.375 C 47.023438 3.601562 47.625 3.226562 47.625 3.226562"></path></clipPath><clipPath id="a0fda9d89f"><path clip-rule="nonzero" d="M 44.363281 1.480469 L 44.722656 1.480469 L 44.722656 1.738281 L 44.363281 1.738281 Z M 44.363281 1.480469"></path></clipPath><clipPath id="434901a95b"><path clip-rule="nonzero" d="M 44.699219 1.648438 C 44.023438 1.875 44.625 1.5 44.625 1.5"></path></clipPath><clipPath id="62a6bd6716"><path clip-rule="nonzero" d="M 69.253906 1.480469 L 69.660156 1.480469 L 69.660156 1.761719 L 69.253906 1.761719 Z M 69.253906 1.480469"></path></clipPath><clipPath id="86086c38e2"><path clip-rule="nonzero" d="M 69.640625 1.648438 C 68.890625 1.949219 69.488281 1.5 69.488281 1.5"></path></clipPath><clipPath id="437b0a5d8a"><path clip-rule="nonzero" d="M 19.613281 0.199219 L 70.382812 0.199219 L 70.382812 89.792969 L 19.613281 89.792969 Z M 19.613281 0.199219"></path></clipPath></defs><rect fill-opacity="1" height="107.999999" y="-9" fill="#ffffff" width="108" x="-9"></rect><rect fill-opacity="1" height="107.999999" y="-9" fill="#000000" width="108" x="-9"></rect><g clip-path="url(#8ab8450f84)"><g clip-path="url(#d93890bbe6)"><path fill-rule="nonzero" fill-opacity="1" d="M 44.023438 0.226562 L 50.78125 0.226562 L 50.78125 6.75 L 44.023438 6.75 Z M 44.023438 0.226562" fill="#000000"></path></g></g><g clip-path="url(#a0fda9d89f)"><g clip-path="url(#434901a95b)"><path fill-rule="nonzero" fill-opacity="1" d="M 41.023438 -1.5 L 47.78125 -1.5 L 47.78125 5.023438 L 41.023438 5.023438 Z M 41.023438 -1.5" fill="#000000"></path></g></g><g clip-path="url(#62a6bd6716)"><g clip-path="url(#86086c38e2)"><path fill-rule="nonzero" fill-opacity="1" d="M 65.964844 -1.5 L 72.71875 -1.5 L 72.71875 5.023438 L 65.964844 5.023438 Z M 65.964844 -1.5" fill="#000000"></path></g></g><g clip-path="url(#437b0a5d8a)"><path fill-rule="nonzero" fill-opacity="1" d="M 21.105469 89.792969 C 20.835938 89.792969 20.570312 89.722656 20.328125 89.574219 C 19.699219 89.1875 19.445312 88.402344 19.730469 87.722656 L 36.460938 47.980469 L 21.105469 47.980469 C 20.589844 47.980469 20.109375 47.714844 19.835938 47.273438 C 19.5625 46.832031 19.539062 46.28125 19.769531 45.820312 L 42.167969 1.023438 C 42.421875 0.515625 42.941406 0.199219 43.503906 0.199219 L 67.398438 0.199219 C 67.941406 0.199219 68.441406 0.492188 68.707031 0.972656 C 68.96875 1.445312 68.949219 2.027344 68.660156 2.488281 L 51.195312 30.0625 L 68.890625 30.0625 C 69.472656 30.0625 70 30.398438 70.246094 30.925781 C 70.488281 31.453125 70.410156 32.074219 70.035156 32.519531 L 22.25 89.265625 C 21.957031 89.609375 21.535156 89.792969 21.105469 89.792969" fill="#ffffff"></path></g></svg>