<svg version="1.0" preserveAspectRatio="xMidYMid meet" height="120" viewBox="0 0 90 89.999999" zoomAndPan="magnify" width="120" xmlns:xlink="http://www.w3.org/1999/xlink" xmlns="http://www.w3.org/2000/svg"><defs><clipPath id="2ab1793301"><path clip-rule="nonzero" d="M 47.363281 3.207031 L 47.722656 3.207031 L 47.722656 3.460938 L 47.363281 3.460938 Z M 47.363281 3.207031"></path></clipPath><clipPath id="86371effe9"><path clip-rule="nonzero" d="M 47.699219 3.375 C 47.023438 3.601562 47.625 3.226562 47.625 3.226562"></path></clipPath><clipPath id="b714220a8c"><path clip-rule="nonzero" d="M 44.363281 1.480469 L 44.722656 1.480469 L 44.722656 1.738281 L 44.363281 1.738281 Z M 44.363281 1.480469"></path></clipPath><clipPath id="79573ab5df"><path clip-rule="nonzero" d="M 44.699219 1.648438 C 44.023438 1.875 44.625 1.5 44.625 1.5"></path></clipPath><clipPath id="1f5eacce1c"><path clip-rule="nonzero" d="M 69.253906 1.480469 L 69.660156 1.480469 L 69.660156 1.761719 L 69.253906 1.761719 Z M 69.253906 1.480469"></path></clipPath><clipPath id="636427a2ac"><path clip-rule="nonzero" d="M 69.640625 1.648438 C 68.890625 1.949219 69.488281 1.5 69.488281 1.5"></path></clipPath><clipPath id="94914d91d2"><path clip-rule="nonzero" d="M 16.476562 0 L 73 0 L 73 90 L 16.476562 90 Z M 16.476562 0"></path></clipPath></defs><rect fill-opacity="1" height="107.999999" y="-9" fill="#ffffff" width="108" x="-9"></rect><rect fill-opacity="1" height="107.999999" y="-9" fill="#000000" width="108" x="-9"></rect><g clip-path="url(#2ab1793301)"><g clip-path="url(#86371effe9)"><path fill-rule="nonzero" fill-opacity="1" d="M 44.023438 0.226562 L 50.78125 0.226562 L 50.78125 6.75 L 44.023438 6.75 Z M 44.023438 0.226562" fill="#000000"></path></g></g><g clip-path="url(#b714220a8c)"><g clip-path="url(#79573ab5df)"><path fill-rule="nonzero" fill-opacity="1" d="M 41.023438 -1.5 L 47.78125 -1.5 L 47.78125 5.023438 L 41.023438 5.023438 Z M 41.023438 -1.5" fill="#000000"></path></g></g><g clip-path="url(#1f5eacce1c)"><g clip-path="url(#636427a2ac)"><path fill-rule="nonzero" fill-opacity="1" d="M 65.964844 -1.5 L 72.71875 -1.5 L 72.71875 5.023438 L 65.964844 5.023438 Z M 65.964844 -1.5" fill="#000000"></path></g></g><g clip-path="url(#94914d91d2)"><path fill-rule="nonzero" fill-opacity="1" d="M 34.097656 66.089844 C 36.171875 68.296875 38.742188 69.703125 41.820312 70.300781 L 41.820312 49.34375 C 41.480469 49.214844 41.03125 49.0625 40.464844 48.890625 C 39.894531 48.726562 39.277344 48.578125 38.609375 48.445312 C 36.136719 47.777344 33.695312 46.984375 31.289062 46.085938 C 28.886719 45.183594 26.726562 43.976562 24.820312 42.472656 C 22.914062 40.96875 21.394531 39.097656 20.261719 36.859375 C 19.125 34.621094 18.558594 31.832031 18.558594 28.484375 C 18.558594 25.074219 19.210938 22.066406 20.515625 19.464844 C 21.816406 16.859375 23.535156 14.664062 25.675781 12.898438 C 27.8125 11.125 30.285156 9.75 33.09375 8.789062 C 35.898438 7.816406 38.8125 7.238281 41.820312 7.03125 L 41.820312 -0.679688 L 47.730469 -0.679688 L 47.730469 7.042969 C 50.738281 7.375 53.5625 8.03125 56.203125 8.992188 C 58.847656 9.964844 61.171875 11.300781 63.175781 13.007812 C 65.179688 14.710938 66.8125 16.835938 68.089844 19.375 C 69.355469 21.917969 70.09375 24.925781 70.292969 28.398438 L 56.054688 28.398438 C 55.988281 25.722656 55.15625 23.449219 53.546875 21.578125 C 51.945312 19.707031 50.003906 18.765625 47.738281 18.765625 L 47.738281 36.507812 C 48.542969 36.710938 49.355469 36.910156 50.195312 37.113281 C 51.03125 37.3125 51.917969 37.546875 52.851562 37.8125 C 57.800781 39.148438 61.605469 40.808594 64.28125 42.777344 C 66.953125 44.746094 68.925781 46.808594 70.195312 48.945312 C 71.464844 51.078125 72.214844 53.21875 72.453125 55.363281 C 72.6875 57.503906 72.800781 59.402344 72.800781 61.074219 C 72.800781 62.550781 72.433594 64.398438 71.699219 66.636719 C 70.964844 68.882812 69.644531 71.0625 67.738281 73.203125 C 65.832031 75.34375 63.277344 77.25 60.070312 78.921875 C 56.859375 80.59375 52.75 81.589844 47.738281 81.929688 L 47.738281 90.449219 L 41.824219 90.449219 L 41.824219 81.929688 C 34.339844 81.394531 28.488281 79.089844 24.28125 75.011719 C 20.066406 70.9375 17.628906 64.953125 16.960938 57.066406 L 31.101562 57.066406 C 31.027344 60.878906 32.03125 63.882812 34.097656 66.089844 Z M 38.511719 19.269531 C 37.445312 19.601562 36.472656 20.125 35.605469 20.820312 C 34.742188 21.527344 34.058594 22.394531 33.550781 23.425781 C 33.054688 24.464844 32.800781 25.683594 32.800781 27.082031 C 32.800781 29.292969 33.5 30.992188 34.90625 32.199219 C 36.308594 33.398438 38.617188 34.367188 41.824219 35.101562 L 41.824219 18.765625 C 40.683594 18.765625 39.578125 18.929688 38.511719 19.269531 Z M 51.496094 69.449219 C 52.800781 69.011719 53.972656 68.394531 55.003906 67.59375 C 56.039062 66.796875 56.894531 65.804688 57.558594 64.632812 C 58.226562 63.46875 58.566406 62.078125 58.566406 60.472656 C 58.566406 57.863281 57.742188 55.914062 56.109375 54.609375 C 54.472656 53.308594 51.679688 52.117188 47.738281 51.050781 L 47.738281 70.300781 C 48.9375 70.167969 50.195312 69.886719 51.496094 69.449219 Z M 51.496094 69.449219" fill="#ffffff"></path></g></svg>