<svg version="1.0" preserveAspectRatio="xMidYMid meet" height="120" viewBox="0 0 90 89.999999" zoomAndPan="magnify" width="120" xmlns:xlink="http://www.w3.org/1999/xlink" xmlns="http://www.w3.org/2000/svg"><defs><clipPath id="9da7f027c6"><path clip-rule="nonzero" d="M 47.363281 3.207031 L 47.722656 3.207031 L 47.722656 3.460938 L 47.363281 3.460938 Z M 47.363281 3.207031"></path></clipPath><clipPath id="5b84d860e2"><path clip-rule="nonzero" d="M 47.699219 3.375 C 47.023438 3.601562 47.625 3.226562 47.625 3.226562"></path></clipPath><clipPath id="52c572c10f"><path clip-rule="nonzero" d="M 44.363281 1.480469 L 44.722656 1.480469 L 44.722656 1.738281 L 44.363281 1.738281 Z M 44.363281 1.480469"></path></clipPath><clipPath id="707251051e"><path clip-rule="nonzero" d="M 44.699219 1.648438 C 44.023438 1.875 44.625 1.5 44.625 1.5"></path></clipPath><clipPath id="b20f467da6"><path clip-rule="nonzero" d="M 68.3125 2.230469 L 68.722656 2.230469 L 68.722656 2.511719 L 68.3125 2.511719 Z M 68.3125 2.230469"></path></clipPath><clipPath id="a256221a00"><path clip-rule="nonzero" d="M 68.699219 2.398438 C 67.949219 2.699219 68.550781 2.25 68.550781 2.25"></path></clipPath><clipPath id="8ec3d8cdc4"><path clip-rule="nonzero" d="M 3.480469 0.09375 L 85.230469 0.09375 L 85.230469 89 L 3.480469 89 Z M 3.480469 0.09375"></path></clipPath></defs><rect fill-opacity="1" height="107.999999" y="-9" fill="#ffffff" width="108" x="-9"></rect><rect fill-opacity="1" height="107.999999" y="-9" fill="#000000" width="108" x="-9"></rect><g clip-path="url(#9da7f027c6)"><g clip-path="url(#5b84d860e2)"><path fill-rule="nonzero" fill-opacity="1" d="M 44.023438 0.226562 L 50.78125 0.226562 L 50.78125 6.75 L 44.023438 6.75 Z M 44.023438 0.226562" fill="#000000"></path></g></g><g clip-path="url(#52c572c10f)"><g clip-path="url(#707251051e)"><path fill-rule="nonzero" fill-opacity="1" d="M 41.023438 -1.5 L 47.78125 -1.5 L 47.78125 5.023438 L 41.023438 5.023438 Z M 41.023438 -1.5" fill="#000000"></path></g></g><g clip-path="url(#b20f467da6)"><g clip-path="url(#a256221a00)"><path fill-rule="nonzero" fill-opacity="1" d="M 65.023438 -0.75 L 71.78125 -0.75 L 71.78125 5.773438 L 65.023438 5.773438 Z M 65.023438 -0.75" fill="#000000"></path></g></g><g clip-path="url(#8ec3d8cdc4)"><path fill-rule="nonzero" fill-opacity="1" d="M 79.140625 35.242188 C 79.140625 34.101562 79.082031 32.964844 78.972656 31.828125 C 78.859375 30.691406 78.691406 29.566406 78.46875 28.445312 C 78.246094 27.328125 77.96875 26.222656 77.636719 25.128906 C 77.308594 24.039062 76.921875 22.964844 76.488281 21.910156 C 76.050781 20.855469 75.5625 19.824219 75.023438 18.820312 C 74.488281 17.8125 73.902344 16.835938 73.265625 15.886719 C 72.632812 14.9375 71.953125 14.023438 71.230469 13.140625 C 70.507812 12.257812 69.742188 11.414062 68.933594 10.605469 C 68.125 9.800781 67.28125 9.035156 66.398438 8.308594 C 65.519531 7.585938 64.601562 6.90625 63.652344 6.273438 C 62.703125 5.640625 61.726562 5.054688 60.71875 4.515625 C 59.714844 3.976562 58.683594 3.488281 57.628906 3.054688 C 56.574219 2.617188 55.503906 2.230469 54.410156 1.902344 C 53.316406 1.570312 52.210938 1.292969 51.09375 1.070312 C 49.972656 0.847656 48.847656 0.679688 47.710938 0.566406 C 46.574219 0.457031 45.4375 0.402344 44.296875 0.402344 C 43.15625 0.402344 42.015625 0.457031 40.878906 0.566406 C 39.746094 0.679688 38.617188 0.847656 37.5 1.070312 C 36.378906 1.292969 35.273438 1.570312 34.179688 1.902344 C 33.089844 2.230469 32.015625 2.617188 30.960938 3.054688 C 29.90625 3.488281 28.878906 3.976562 27.871094 4.515625 C 26.863281 5.054688 25.886719 5.640625 24.9375 6.273438 C 23.988281 6.90625 23.074219 7.585938 22.191406 8.308594 C 21.308594 9.035156 20.464844 9.800781 19.65625 10.605469 C 18.851562 11.414062 18.085938 12.257812 17.363281 13.140625 C 16.636719 14.023438 15.957031 14.9375 15.324219 15.886719 C 14.691406 16.835938 14.105469 17.8125 13.566406 18.820312 C 13.027344 19.824219 12.542969 20.855469 12.105469 21.910156 C 11.667969 22.964844 11.285156 24.039062 10.953125 25.128906 C 10.621094 26.222656 10.34375 27.328125 10.121094 28.445312 C 9.898438 29.566406 9.730469 30.691406 9.621094 31.828125 C 9.507812 32.964844 9.453125 34.101562 9.453125 35.242188 C 9.066406 35.242188 8.6875 35.28125 8.308594 35.355469 C 7.929688 35.425781 7.5625 35.535156 7.207031 35.679688 C 6.851562 35.824219 6.511719 36.003906 6.1875 36.210938 C 5.867188 36.421875 5.566406 36.660156 5.289062 36.929688 C 5.015625 37.199219 4.765625 37.488281 4.546875 37.804688 C 4.328125 38.121094 4.140625 38.453125 3.984375 38.808594 C 3.828125 39.160156 3.707031 39.523438 3.625 39.898438 C 3.539062 40.273438 3.492188 40.652344 3.480469 41.039062 L 3.480469 57.324219 C 3.480469 57.703125 3.515625 58.082031 3.589844 58.453125 C 3.664062 58.828125 3.773438 59.191406 3.921875 59.542969 C 4.066406 59.894531 4.246094 60.226562 4.457031 60.542969 C 4.667969 60.859375 4.90625 61.152344 5.175781 61.421875 C 5.445312 61.691406 5.738281 61.929688 6.054688 62.140625 C 6.371094 62.351562 6.703125 62.53125 7.054688 62.675781 C 7.40625 62.824219 7.769531 62.933594 8.144531 63.007812 C 8.515625 63.082031 8.894531 63.117188 9.273438 63.117188 L 13.253906 63.117188 C 14.445312 65.445312 15.882812 67.609375 17.5625 69.613281 C 19.242188 71.613281 21.121094 73.40625 23.207031 74.980469 C 25.289062 76.558594 27.523438 77.882812 29.90625 78.957031 C 32.292969 80.03125 34.765625 80.824219 37.328125 81.335938 C 37.339844 81.65625 37.371094 81.972656 37.425781 82.289062 C 37.476562 82.601562 37.546875 82.914062 37.636719 83.21875 C 37.726562 83.527344 37.832031 83.828125 37.957031 84.121094 C 38.082031 84.414062 38.222656 84.699219 38.382812 84.976562 C 38.542969 85.253906 38.71875 85.519531 38.910156 85.773438 C 39.101562 86.03125 39.308594 86.273438 39.527344 86.503906 C 39.75 86.734375 39.980469 86.949219 40.230469 87.152344 C 40.476562 87.355469 40.734375 87.542969 41.003906 87.714844 C 41.273438 87.886719 41.550781 88.042969 41.839844 88.179688 C 42.125 88.316406 42.421875 88.4375 42.722656 88.542969 C 43.027344 88.644531 43.332031 88.726562 43.644531 88.792969 C 43.957031 88.859375 44.273438 88.90625 44.589844 88.933594 C 44.910156 88.960938 45.226562 88.96875 45.546875 88.960938 C 45.867188 88.949219 46.183594 88.917969 46.5 88.871094 C 46.8125 88.820312 47.125 88.753906 47.433594 88.667969 C 47.742188 88.582031 48.042969 88.476562 48.335938 88.355469 C 48.632812 88.234375 48.917969 88.09375 49.195312 87.9375 C 49.472656 87.78125 49.742188 87.605469 50 87.417969 C 50.257812 87.230469 50.5 87.027344 50.734375 86.808594 C 50.96875 86.589844 51.1875 86.355469 51.390625 86.113281 C 51.59375 85.867188 51.785156 85.609375 51.960938 85.34375 C 52.132812 85.074219 52.289062 84.800781 52.433594 84.511719 C 52.574219 84.226562 52.695312 83.933594 52.800781 83.628906 C 52.90625 83.328125 52.992188 83.023438 53.0625 82.710938 C 53.128906 82.398438 53.179688 82.085938 53.210938 81.765625 C 53.242188 81.449219 53.253906 81.128906 53.246094 80.8125 C 53.238281 80.492188 53.210938 80.175781 53.167969 79.859375 C 53.121094 79.542969 53.054688 79.230469 52.972656 78.921875 C 52.890625 78.613281 52.789062 78.3125 52.667969 78.015625 C 52.546875 77.71875 52.410156 77.433594 52.257812 77.152344 C 52.101562 76.875 51.933594 76.605469 51.746094 76.34375 C 51.558594 76.085938 51.359375 75.839844 51.140625 75.605469 C 50.925781 75.371094 50.695312 75.148438 50.453125 74.941406 C 50.210938 74.734375 49.957031 74.542969 49.691406 74.367188 C 49.425781 74.1875 49.148438 74.027344 48.863281 73.886719 C 48.578125 73.742188 48.285156 73.617188 47.984375 73.507812 C 47.683594 73.398438 47.378906 73.308594 47.066406 73.238281 C 46.757812 73.167969 46.441406 73.113281 46.125 73.078125 C 45.808594 73.046875 45.488281 73.03125 45.167969 73.035156 C 44.851562 73.039062 44.53125 73.066406 44.214844 73.109375 C 43.898438 73.148438 43.585938 73.210938 43.277344 73.292969 C 42.96875 73.371094 42.667969 73.472656 42.371094 73.589844 C 42.070312 73.703125 41.78125 73.839844 41.503906 73.992188 C 41.222656 74.140625 40.949219 74.308594 40.691406 74.496094 C 40.429688 74.679688 40.179688 74.878906 39.941406 75.09375 C 39.707031 75.304688 39.484375 75.535156 39.273438 75.773438 C 39.0625 76.015625 38.871094 76.269531 38.691406 76.53125 C 38.511719 76.796875 38.347656 77.070312 38.203125 77.355469 C 35.980469 76.917969 33.835938 76.242188 31.765625 75.328125 C 29.691406 74.414062 27.746094 73.285156 25.925781 71.941406 C 24.105469 70.597656 22.453125 69.070312 20.96875 67.359375 C 19.488281 65.648438 18.210938 63.796875 17.136719 61.804688 C 17.835938 61.269531 18.386719 60.609375 18.785156 59.824219 C 19.179688 59.039062 19.390625 58.203125 19.40625 57.324219 L 19.40625 41.039062 C 19.394531 40.652344 19.347656 40.273438 19.261719 39.898438 C 19.179688 39.523438 19.058594 39.160156 18.902344 38.808594 C 18.746094 38.453125 18.558594 38.121094 18.339844 37.804688 C 18.121094 37.488281 17.871094 37.199219 17.597656 36.929688 C 17.320312 36.660156 17.019531 36.421875 16.699219 36.210938 C 16.375 36.003906 16.035156 35.824219 15.679688 35.679688 C 15.324219 35.535156 14.957031 35.425781 14.578125 35.355469 C 14.199219 35.28125 13.820312 35.242188 13.433594 35.242188 C 13.433594 34.234375 13.484375 33.226562 13.582031 32.21875 C 13.683594 31.214844 13.832031 30.214844 14.027344 29.222656 C 14.222656 28.230469 14.46875 27.253906 14.761719 26.285156 C 15.058594 25.316406 15.398438 24.367188 15.785156 23.433594 C 16.171875 22.5 16.601562 21.585938 17.078125 20.695312 C 17.554688 19.804688 18.074219 18.9375 18.636719 18.097656 C 19.195312 17.257812 19.796875 16.445312 20.441406 15.664062 C 21.082031 14.882812 21.757812 14.136719 22.472656 13.421875 C 23.1875 12.707031 23.9375 12.027344 24.71875 11.386719 C 25.5 10.746094 26.308594 10.144531 27.148438 9.582031 C 27.992188 9.023438 28.855469 8.503906 29.746094 8.027344 C 30.640625 7.550781 31.550781 7.117188 32.484375 6.730469 C 33.417969 6.34375 34.371094 6.003906 35.335938 5.710938 C 36.304688 5.417969 37.285156 5.171875 38.273438 4.976562 C 39.265625 4.777344 40.265625 4.628906 41.269531 4.53125 C 42.277344 4.433594 43.285156 4.382812 44.296875 4.382812 C 45.304688 4.382812 46.316406 4.433594 47.320312 4.53125 C 48.328125 4.628906 49.324219 4.777344 50.316406 4.976562 C 51.308594 5.171875 52.285156 5.417969 53.253906 5.710938 C 54.222656 6.003906 55.171875 6.34375 56.105469 6.730469 C 57.039062 7.117188 57.953125 7.550781 58.84375 8.027344 C 59.734375 8.503906 60.601562 9.023438 61.441406 9.582031 C 62.28125 10.144531 63.09375 10.746094 63.875 11.386719 C 64.65625 12.027344 65.402344 12.707031 66.117188 13.421875 C 66.832031 14.136719 67.511719 14.882812 68.152344 15.664062 C 68.792969 16.445312 69.394531 17.257812 69.957031 18.097656 C 70.515625 18.9375 71.035156 19.804688 71.511719 20.695312 C 71.988281 21.585938 72.421875 22.5 72.808594 23.433594 C 73.195312 24.367188 73.535156 25.316406 73.828125 26.285156 C 74.121094 27.253906 74.367188 28.230469 74.5625 29.222656 C 74.761719 30.214844 74.910156 31.214844 75.007812 32.21875 C 75.105469 33.226562 75.15625 34.234375 75.15625 35.242188 C 75.15625 35.242188 68.886719 35.105469 69.183594 41.039062 L 69.183594 57.324219 C 69.183594 57.703125 69.222656 58.082031 69.296875 58.453125 C 69.371094 58.828125 69.480469 59.191406 69.625 59.542969 C 69.769531 59.894531 69.949219 60.226562 70.160156 60.542969 C 70.371094 60.859375 70.613281 61.152344 70.878906 61.421875 C 71.148438 61.691406 71.441406 61.929688 71.757812 62.140625 C 72.074219 62.351562 72.410156 62.53125 72.761719 62.675781 C 73.113281 62.824219 73.472656 62.933594 73.847656 63.007812 C 74.21875 63.082031 74.597656 63.117188 74.976562 63.117188 L 79.316406 63.117188 C 79.699219 63.117188 80.074219 63.082031 80.449219 63.007812 C 80.820312 62.933594 81.183594 62.824219 81.535156 62.675781 C 81.886719 62.53125 82.222656 62.351562 82.535156 62.140625 C 82.851562 61.929688 83.144531 61.691406 83.414062 61.421875 C 83.683594 61.152344 83.925781 60.859375 84.136719 60.542969 C 84.347656 60.226562 84.527344 59.894531 84.671875 59.542969 C 84.816406 59.191406 84.925781 58.828125 85 58.453125 C 85.074219 58.082031 85.113281 57.703125 85.113281 57.324219 L 85.113281 41.039062 C 85.144531 40.640625 85.132812 40.246094 85.078125 39.851562 C 85.019531 39.460938 84.921875 39.078125 84.78125 38.703125 C 84.644531 38.332031 84.464844 37.980469 84.246094 37.648438 C 84.027344 37.316406 83.777344 37.011719 83.492188 36.734375 C 83.203125 36.457031 82.894531 36.214844 82.554688 36.007812 C 82.214844 35.800781 81.859375 35.628906 81.480469 35.5 C 81.105469 35.375 80.71875 35.285156 80.324219 35.242188 C 79.929688 35.199219 79.535156 35.199219 79.140625 35.242188 Z M 79.140625 35.242188" fill="#ffffff"></path></g></svg>