<svg version="1.0" preserveAspectRatio="xMidYMid meet" height="120" viewBox="0 0 90 89.999999" zoomAndPan="magnify" width="120" xmlns:xlink="http://www.w3.org/1999/xlink" xmlns="http://www.w3.org/2000/svg"><defs><clipPath id="10ed814133"><path clip-rule="nonzero" d="M 47.363281 3.207031 L 47.722656 3.207031 L 47.722656 3.460938 L 47.363281 3.460938 Z M 47.363281 3.207031"></path></clipPath><clipPath id="9f95a5bb9c"><path clip-rule="nonzero" d="M 47.699219 3.375 C 47.023438 3.601562 47.625 3.226562 47.625 3.226562"></path></clipPath><clipPath id="835bb9726f"><path clip-rule="nonzero" d="M 44.363281 1.480469 L 44.722656 1.480469 L 44.722656 1.738281 L 44.363281 1.738281 Z M 44.363281 1.480469"></path></clipPath><clipPath id="58fafcb84f"><path clip-rule="nonzero" d="M 44.699219 1.648438 C 44.023438 1.875 44.625 1.5 44.625 1.5"></path></clipPath><clipPath id="5042a6431c"><path clip-rule="nonzero" d="M 69.253906 1.480469 L 69.660156 1.480469 L 69.660156 1.761719 L 69.253906 1.761719 Z M 69.253906 1.480469"></path></clipPath><clipPath id="4e127eb9be"><path clip-rule="nonzero" d="M 69.640625 1.648438 C 68.890625 1.949219 69.488281 1.5 69.488281 1.5"></path></clipPath><clipPath id="c89672b408"><path clip-rule="nonzero" d="M 20.8125 0 L 69.5625 0 L 69.5625 90 L 20.8125 90 Z M 20.8125 0"></path></clipPath></defs><rect fill-opacity="1" height="107.999999" y="-9" fill="#ffffff" width="108" x="-9"></rect><rect fill-opacity="1" height="107.999999" y="-9" fill="#000000" width="108" x="-9"></rect><g clip-path="url(#10ed814133)"><g clip-path="url(#9f95a5bb9c)"><path fill-rule="nonzero" fill-opacity="1" d="M 44.023438 0.226562 L 50.78125 0.226562 L 50.78125 6.75 L 44.023438 6.75 Z M 44.023438 0.226562" fill="#000000"></path></g></g><g clip-path="url(#835bb9726f)"><g clip-path="url(#58fafcb84f)"><path fill-rule="nonzero" fill-opacity="1" d="M 41.023438 -1.5 L 47.78125 -1.5 L 47.78125 5.023438 L 41.023438 5.023438 Z M 41.023438 -1.5" fill="#000000"></path></g></g><g clip-path="url(#5042a6431c)"><g clip-path="url(#4e127eb9be)"><path fill-rule="nonzero" fill-opacity="1" d="M 65.964844 -1.5 L 72.71875 -1.5 L 72.71875 5.023438 L 65.964844 5.023438 Z M 65.964844 -1.5" fill="#000000"></path></g></g><g clip-path="url(#c89672b408)"><path fill-rule="nonzero" fill-opacity="1" d="M 66.554688 82.222656 C 66.554688 85.085938 64.230469 87.40625 61.367188 87.40625 L 28.632812 87.40625 C 25.769531 87.40625 23.449219 85.085938 23.449219 82.222656 L 23.449219 7.777344 C 23.449219 4.914062 25.769531 2.59375 28.632812 2.59375 L 35.292969 2.59375 C 35.644531 2.59375 35.929688 2.878906 35.929688 3.230469 L 35.929688 3.558594 C 35.929688 4.863281 36.988281 5.921875 38.292969 5.921875 L 51.710938 5.921875 C 53.015625 5.921875 54.074219 4.863281 54.074219 3.558594 L 54.074219 3.230469 C 54.074219 2.878906 54.359375 2.59375 54.710938 2.59375 L 61.367188 2.59375 C 64.230469 2.59375 66.554688 4.914062 66.554688 7.777344 Z M 61.367188 0 L 28.632812 0 C 24.347656 0 20.859375 3.488281 20.859375 7.777344 L 20.859375 82.222656 C 20.859375 86.511719 24.347656 90 28.632812 90 L 61.367188 90 C 65.65625 90 69.144531 86.511719 69.144531 82.222656 L 69.144531 7.777344 C 69.144531 3.488281 65.65625 0 61.367188 0" fill="#ffffff"></path></g></svg>